<?xml version="1.0" encoding="utf-8" standalone="no"?>
<!DOCTYPE svg PUBLIC "-//W3C//DTD SVG 1.1//EN"
  "http://www.w3.org/Graphics/SVG/1.1/DTD/svg11.dtd">
<svg xmlns:xlink="http://www.w3.org/1999/xlink" width="566.117187pt" height="480.502187pt" viewBox="0 0 566.117187 480.502187" xmlns="http://www.w3.org/2000/svg" version="1.1">
 <metadata>
  <rdf:RDF xmlns:dc="http://purl.org/dc/elements/1.1/" xmlns:cc="http://creativecommons.org/ns#" xmlns:rdf="http://www.w3.org/1999/02/22-rdf-syntax-ns#">
   <cc:Work>
    <dc:type rdf:resource="http://purl.org/dc/dcmitype/StillImage"/>
    <dc:date>2026-03-27T09:05:11.303482</dc:date>
    <dc:format>image/svg+xml</dc:format>
    <dc:creator>
     <cc:Agent>
      <dc:title>Matplotlib v3.10.8, https://matplotlib.org/</dc:title>
     </cc:Agent>
    </dc:creator>
   </cc:Work>
  </rdf:RDF>
 </metadata>
 <defs>
  <style type="text/css">*{stroke-linejoin: round; stroke-linecap: butt}</style>
 </defs>
 <g id="figure_1">
  <g id="patch_1">
   <path d="M 0 480.502187 
L 566.117187 480.502187 
L 566.117187 0 
L 0 0 
z
" style="fill: #ffffff"/>
  </g>
  <g id="axes_1">
   <g id="patch_2">
    <path d="M 468.397187 258.693125 
C 468.397187 233.212026 463.377967 207.978698 453.626772 184.437232 
C 443.875577 160.895766 429.582045 139.503983 411.564187 121.486125 
C 393.546329 103.468267 372.154547 89.174735 348.613081 79.423541 
C 325.071615 69.672346 299.838287 64.653125 274.357187 64.653125 
C 248.876088 64.653125 223.64276 69.672346 200.101294 79.423541 
C 176.559828 89.174735 155.168046 103.468267 137.150188 121.486125 
C 119.13233 139.503983 104.838798 160.895766 95.087603 184.437232 
C 85.336408 207.978698 80.317187 233.212026 80.317187 258.693125 
C 80.317187 284.174224 85.336408 309.407552 95.087603 332.949018 
C 104.838798 356.490484 119.13233 377.882267 137.150188 395.900125 
C 155.168046 413.917983 176.559828 428.211515 200.101294 437.962709 
C 223.64276 447.713904 248.876088 452.733125 274.357187 452.733125 
C 299.838287 452.733125 325.071615 447.713904 348.613081 437.962709 
C 372.154547 428.211515 393.546329 413.917983 411.564187 395.900125 
C 429.582045 377.882267 443.875577 356.490484 453.626772 332.949018 
C 463.377967 309.407552 468.397187 284.174224 468.397187 258.693125 
M 274.357187 258.693125 
C 274.357187 258.693125 274.357187 258.693125 274.357187 258.693125 
C 274.357187 258.693125 274.357187 258.693125 274.357187 258.693125 
C 274.357187 258.693125 274.357187 258.693125 274.357187 258.693125 
C 274.357187 258.693125 274.357187 258.693125 274.357187 258.693125 
C 274.357187 258.693125 274.357187 258.693125 274.357187 258.693125 
C 274.357187 258.693125 274.357187 258.693125 274.357187 258.693125 
C 274.357187 258.693125 274.357187 258.693125 274.357187 258.693125 
C 274.357187 258.693125 274.357187 258.693125 274.357187 258.693125 
C 274.357187 258.693125 274.357187 258.693125 274.357187 258.693125 
C 274.357187 258.693125 274.357187 258.693125 274.357187 258.693125 
C 274.357187 258.693125 274.357187 258.693125 274.357187 258.693125 
C 274.357187 258.693125 274.357187 258.693125 274.357187 258.693125 
C 274.357187 258.693125 274.357187 258.693125 274.357187 258.693125 
C 274.357187 258.693125 274.357187 258.693125 274.357187 258.693125 
C 274.357187 258.693125 274.357187 258.693125 274.357187 258.693125 
C 274.357187 258.693125 274.357187 258.693125 274.357187 258.693125 
z
" style="fill: #ffffff"/>
   </g>
   <g id="patch_3">
    <path d="M 274.357187 258.693125 
L 274.357187 258.693125 
L 97.957188 258.693125 
L 274.357187 435.093125 
z
" clip-path="url(#paf2c5b84fe)" style="fill: #5b8dee; opacity: 0.12; stroke: #5b8dee; stroke-linejoin: miter"/>
   </g>
   <g id="patch_4">
    <path d="M 362.557187 258.693125 
L 274.357187 170.493125 
L 186.157187 258.693125 
L 274.357187 346.893125 
z
" clip-path="url(#paf2c5b84fe)" style="fill: #f5a623; opacity: 0.12; stroke: #f5a623; stroke-linejoin: miter"/>
   </g>
   <g id="patch_5">
    <path d="M 450.757187 258.693125 
L 274.357187 82.293125 
L 274.357187 258.693125 
L 274.357187 258.693125 
z
" clip-path="url(#paf2c5b84fe)" style="fill: #2ecc71; opacity: 0.12; stroke: #2ecc71; stroke-linejoin: miter"/>
   </g>
   <g id="matplotlib.axis_1">
    <g id="xtick_1">
     <g id="line2d_1">
      <path d="M 274.357187 258.693125 
L 468.397187 258.693125 
" clip-path="url(#paf2c5b84fe)" style="fill: none; stroke: #e0e0e0; stroke-width: 0.8; stroke-linecap: square"/>
     </g>
     <g id="text_1">
      <!-- Mean Speed -->
      <g transform="translate(441.555469 262.4075) scale(0.14 -0.14)">
       <defs>
        <path id="Arial-BoldMT-4d" d="M 453 0 
L 453 4581 
L 1838 4581 
L 2669 1456 
L 3491 4581 
L 4878 4581 
L 4878 0 
L 4019 0 
L 4019 3606 
L 3109 0 
L 2219 0 
L 1313 3606 
L 1313 0 
L 453 0 
z
" transform="scale(0.015625)"/>
        <path id="Arial-BoldMT-65" d="M 2381 1056 
L 3256 909 
Q 3088 428 2723 176 
Q 2359 -75 1813 -75 
Q 947 -75 531 491 
Q 203 944 203 1634 
Q 203 2459 634 2926 
Q 1066 3394 1725 3394 
Q 2466 3394 2894 2905 
Q 3322 2416 3303 1406 
L 1103 1406 
Q 1113 1016 1316 798 
Q 1519 581 1822 581 
Q 2028 581 2168 693 
Q 2309 806 2381 1056 
z
M 2431 1944 
Q 2422 2325 2234 2523 
Q 2047 2722 1778 2722 
Q 1491 2722 1303 2513 
Q 1116 2303 1119 1944 
L 2431 1944 
z
" transform="scale(0.015625)"/>
        <path id="Arial-BoldMT-61" d="M 1116 2306 
L 319 2450 
Q 453 2931 781 3162 
Q 1109 3394 1756 3394 
Q 2344 3394 2631 3255 
Q 2919 3116 3036 2902 
Q 3153 2688 3153 2116 
L 3144 1091 
Q 3144 653 3186 445 
Q 3228 238 3344 0 
L 2475 0 
Q 2441 88 2391 259 
Q 2369 338 2359 363 
Q 2134 144 1878 34 
Q 1622 -75 1331 -75 
Q 819 -75 523 203 
Q 228 481 228 906 
Q 228 1188 362 1408 
Q 497 1628 739 1745 
Q 981 1863 1438 1950 
Q 2053 2066 2291 2166 
L 2291 2253 
Q 2291 2506 2166 2614 
Q 2041 2722 1694 2722 
Q 1459 2722 1328 2630 
Q 1197 2538 1116 2306 
z
M 2291 1594 
Q 2122 1538 1756 1459 
Q 1391 1381 1278 1306 
Q 1106 1184 1106 997 
Q 1106 813 1243 678 
Q 1381 544 1594 544 
Q 1831 544 2047 700 
Q 2206 819 2256 991 
Q 2291 1103 2291 1419 
L 2291 1594 
z
" transform="scale(0.015625)"/>
        <path id="Arial-BoldMT-6e" d="M 3478 0 
L 2600 0 
L 2600 1694 
Q 2600 2231 2544 2389 
Q 2488 2547 2361 2634 
Q 2234 2722 2056 2722 
Q 1828 2722 1647 2597 
Q 1466 2472 1398 2265 
Q 1331 2059 1331 1503 
L 1331 0 
L 453 0 
L 453 3319 
L 1269 3319 
L 1269 2831 
Q 1703 3394 2363 3394 
Q 2653 3394 2893 3289 
Q 3134 3184 3257 3021 
Q 3381 2859 3429 2653 
Q 3478 2447 3478 2063 
L 3478 0 
z
" transform="scale(0.015625)"/>
        <path id="Arial-BoldMT-20" transform="scale(0.015625)"/>
        <path id="Arial-BoldMT-53" d="M 231 1491 
L 1131 1578 
Q 1213 1125 1461 912 
Q 1709 700 2131 700 
Q 2578 700 2804 889 
Q 3031 1078 3031 1331 
Q 3031 1494 2936 1608 
Q 2841 1722 2603 1806 
Q 2441 1863 1863 2006 
Q 1119 2191 819 2459 
Q 397 2838 397 3381 
Q 397 3731 595 4036 
Q 794 4341 1167 4500 
Q 1541 4659 2069 4659 
Q 2931 4659 3367 4281 
Q 3803 3903 3825 3272 
L 2900 3231 
Q 2841 3584 2645 3739 
Q 2450 3894 2059 3894 
Q 1656 3894 1428 3728 
Q 1281 3622 1281 3444 
Q 1281 3281 1419 3166 
Q 1594 3019 2269 2859 
Q 2944 2700 3267 2529 
Q 3591 2359 3773 2064 
Q 3956 1769 3956 1334 
Q 3956 941 3737 597 
Q 3519 253 3119 86 
Q 2719 -81 2122 -81 
Q 1253 -81 787 320 
Q 322 722 231 1491 
z
" transform="scale(0.015625)"/>
        <path id="Arial-BoldMT-70" d="M 434 3319 
L 1253 3319 
L 1253 2831 
Q 1413 3081 1684 3237 
Q 1956 3394 2288 3394 
Q 2866 3394 3269 2941 
Q 3672 2488 3672 1678 
Q 3672 847 3265 386 
Q 2859 -75 2281 -75 
Q 2006 -75 1782 34 
Q 1559 144 1313 409 
L 1313 -1263 
L 434 -1263 
L 434 3319 
z
M 1303 1716 
Q 1303 1156 1525 889 
Q 1747 622 2066 622 
Q 2372 622 2575 867 
Q 2778 1113 2778 1672 
Q 2778 2194 2568 2447 
Q 2359 2700 2050 2700 
Q 1728 2700 1515 2451 
Q 1303 2203 1303 1716 
z
" transform="scale(0.015625)"/>
        <path id="Arial-BoldMT-64" d="M 3503 0 
L 2688 0 
L 2688 488 
Q 2484 203 2207 64 
Q 1931 -75 1650 -75 
Q 1078 -75 670 386 
Q 263 847 263 1672 
Q 263 2516 659 2955 
Q 1056 3394 1663 3394 
Q 2219 3394 2625 2931 
L 2625 4581 
L 3503 4581 
L 3503 0 
z
M 1159 1731 
Q 1159 1200 1306 963 
Q 1519 619 1900 619 
Q 2203 619 2415 876 
Q 2628 1134 2628 1647 
Q 2628 2219 2422 2470 
Q 2216 2722 1894 2722 
Q 1581 2722 1370 2473 
Q 1159 2225 1159 1731 
z
" transform="scale(0.015625)"/>
       </defs>
       <use xlink:href="#Arial-BoldMT-4d"/>
       <use xlink:href="#Arial-BoldMT-65" transform="translate(83.300781 0)"/>
       <use xlink:href="#Arial-BoldMT-61" transform="translate(138.916016 0)"/>
       <use xlink:href="#Arial-BoldMT-6e" transform="translate(194.53125 0)"/>
       <use xlink:href="#Arial-BoldMT-20" transform="translate(255.615234 0)"/>
       <use xlink:href="#Arial-BoldMT-53" transform="translate(283.398438 0)"/>
       <use xlink:href="#Arial-BoldMT-70" transform="translate(350.097656 0)"/>
       <use xlink:href="#Arial-BoldMT-65" transform="translate(411.181641 0)"/>
       <use xlink:href="#Arial-BoldMT-65" transform="translate(466.796875 0)"/>
       <use xlink:href="#Arial-BoldMT-64" transform="translate(522.412109 0)"/>
      </g>
     </g>
    </g>
    <g id="xtick_2">
     <g id="line2d_2">
      <path d="M 274.357187 258.693125 
L 274.357187 64.653125 
" clip-path="url(#paf2c5b84fe)" style="fill: none; stroke: #e0e0e0; stroke-width: 0.8; stroke-linecap: square"/>
     </g>
     <g id="text_2">
      <!-- Safety Gap -->
      <g transform="translate(237.790937 54.275625) scale(0.14 -0.14)">
       <defs>
        <path id="Arial-BoldMT-66" d="M 75 3319 
L 563 3319 
L 563 3569 
Q 563 3988 652 4194 
Q 741 4400 980 4529 
Q 1219 4659 1584 4659 
Q 1959 4659 2319 4547 
L 2200 3934 
Q 1991 3984 1797 3984 
Q 1606 3984 1523 3895 
Q 1441 3806 1441 3553 
L 1441 3319 
L 2097 3319 
L 2097 2628 
L 1441 2628 
L 1441 0 
L 563 0 
L 563 2628 
L 75 2628 
L 75 3319 
z
" transform="scale(0.015625)"/>
        <path id="Arial-BoldMT-74" d="M 1981 3319 
L 1981 2619 
L 1381 2619 
L 1381 1281 
Q 1381 875 1398 808 
Q 1416 741 1477 697 
Q 1538 653 1625 653 
Q 1747 653 1978 738 
L 2053 56 
Q 1747 -75 1359 -75 
Q 1122 -75 931 4 
Q 741 84 652 211 
Q 563 338 528 553 
Q 500 706 500 1172 
L 500 2619 
L 97 2619 
L 97 3319 
L 500 3319 
L 500 3978 
L 1381 4491 
L 1381 3319 
L 1981 3319 
z
" transform="scale(0.015625)"/>
        <path id="Arial-BoldMT-79" d="M 44 3319 
L 978 3319 
L 1772 963 
L 2547 3319 
L 3456 3319 
L 2284 125 
L 2075 -453 
Q 1959 -744 1854 -897 
Q 1750 -1050 1614 -1145 
Q 1478 -1241 1279 -1294 
Q 1081 -1347 831 -1347 
Q 578 -1347 334 -1294 
L 256 -606 
Q 463 -647 628 -647 
Q 934 -647 1081 -467 
Q 1228 -288 1306 -9 
L 44 3319 
z
" transform="scale(0.015625)"/>
        <path id="Arial-BoldMT-47" d="M 2597 1684 
L 2597 2456 
L 4591 2456 
L 4591 631 
Q 4300 350 3748 136 
Q 3197 -78 2631 -78 
Q 1913 -78 1378 223 
Q 844 525 575 1086 
Q 306 1647 306 2306 
Q 306 3022 606 3578 
Q 906 4134 1484 4431 
Q 1925 4659 2581 4659 
Q 3434 4659 3914 4301 
Q 4394 3944 4531 3313 
L 3613 3141 
Q 3516 3478 3248 3673 
Q 2981 3869 2581 3869 
Q 1975 3869 1617 3484 
Q 1259 3100 1259 2344 
Q 1259 1528 1621 1120 
Q 1984 713 2572 713 
Q 2863 713 3155 827 
Q 3447 941 3656 1103 
L 3656 1684 
L 2597 1684 
z
" transform="scale(0.015625)"/>
       </defs>
       <use xlink:href="#Arial-BoldMT-53"/>
       <use xlink:href="#Arial-BoldMT-61" transform="translate(66.699219 0)"/>
       <use xlink:href="#Arial-BoldMT-66" transform="translate(122.314453 0)"/>
       <use xlink:href="#Arial-BoldMT-65" transform="translate(155.615234 0)"/>
       <use xlink:href="#Arial-BoldMT-74" transform="translate(211.230469 0)"/>
       <use xlink:href="#Arial-BoldMT-79" transform="translate(244.53125 0)"/>
       <use xlink:href="#Arial-BoldMT-20" transform="translate(300.146484 0)"/>
       <use xlink:href="#Arial-BoldMT-47" transform="translate(327.929688 0)"/>
       <use xlink:href="#Arial-BoldMT-61" transform="translate(405.712891 0)"/>
       <use xlink:href="#Arial-BoldMT-70" transform="translate(461.328125 0)"/>
      </g>
     </g>
    </g>
    <g id="xtick_3">
     <g id="line2d_3">
      <path d="M 274.357187 258.693125 
L 80.317187 258.693125 
" clip-path="url(#paf2c5b84fe)" style="fill: none; stroke: #e0e0e0; stroke-width: 0.8; stroke-linecap: square"/>
     </g>
     <g id="text_3">
      <!-- Ride Smoothness -->
      <g transform="translate(7.2 262.322187) scale(0.14 -0.14)">
       <defs>
        <path id="Arial-BoldMT-52" d="M 469 0 
L 469 4581 
L 2416 4581 
Q 3150 4581 3483 4457 
Q 3816 4334 4016 4018 
Q 4216 3703 4216 3297 
Q 4216 2781 3912 2445 
Q 3609 2109 3006 2022 
Q 3306 1847 3501 1637 
Q 3697 1428 4028 894 
L 4588 0 
L 3481 0 
L 2813 997 
Q 2456 1531 2325 1670 
Q 2194 1809 2047 1861 
Q 1900 1913 1581 1913 
L 1394 1913 
L 1394 0 
L 469 0 
z
M 1394 2644 
L 2078 2644 
Q 2744 2644 2909 2700 
Q 3075 2756 3169 2893 
Q 3263 3031 3263 3238 
Q 3263 3469 3139 3611 
Q 3016 3753 2791 3791 
Q 2678 3806 2116 3806 
L 1394 3806 
L 1394 2644 
z
" transform="scale(0.015625)"/>
        <path id="Arial-BoldMT-69" d="M 459 3769 
L 459 4581 
L 1338 4581 
L 1338 3769 
L 459 3769 
z
M 459 0 
L 459 3319 
L 1338 3319 
L 1338 0 
L 459 0 
z
" transform="scale(0.015625)"/>
        <path id="Arial-BoldMT-6d" d="M 394 3319 
L 1203 3319 
L 1203 2866 
Q 1638 3394 2238 3394 
Q 2556 3394 2790 3262 
Q 3025 3131 3175 2866 
Q 3394 3131 3647 3262 
Q 3900 3394 4188 3394 
Q 4553 3394 4806 3245 
Q 5059 3097 5184 2809 
Q 5275 2597 5275 2122 
L 5275 0 
L 4397 0 
L 4397 1897 
Q 4397 2391 4306 2534 
Q 4184 2722 3931 2722 
Q 3747 2722 3584 2609 
Q 3422 2497 3350 2280 
Q 3278 2063 3278 1594 
L 3278 0 
L 2400 0 
L 2400 1819 
Q 2400 2303 2353 2443 
Q 2306 2584 2207 2653 
Q 2109 2722 1941 2722 
Q 1738 2722 1575 2612 
Q 1413 2503 1342 2297 
Q 1272 2091 1272 1613 
L 1272 0 
L 394 0 
L 394 3319 
z
" transform="scale(0.015625)"/>
        <path id="Arial-BoldMT-6f" d="M 256 1706 
Q 256 2144 472 2553 
Q 688 2963 1083 3178 
Q 1478 3394 1966 3394 
Q 2719 3394 3200 2905 
Q 3681 2416 3681 1669 
Q 3681 916 3195 420 
Q 2709 -75 1972 -75 
Q 1516 -75 1102 131 
Q 688 338 472 736 
Q 256 1134 256 1706 
z
M 1156 1659 
Q 1156 1166 1390 903 
Q 1625 641 1969 641 
Q 2313 641 2545 903 
Q 2778 1166 2778 1666 
Q 2778 2153 2545 2415 
Q 2313 2678 1969 2678 
Q 1625 2678 1390 2415 
Q 1156 2153 1156 1659 
z
" transform="scale(0.015625)"/>
        <path id="Arial-BoldMT-68" d="M 1334 4581 
L 1334 2897 
Q 1759 3394 2350 3394 
Q 2653 3394 2897 3281 
Q 3141 3169 3264 2994 
Q 3388 2819 3433 2606 
Q 3478 2394 3478 1947 
L 3478 0 
L 2600 0 
L 2600 1753 
Q 2600 2275 2550 2415 
Q 2500 2556 2373 2639 
Q 2247 2722 2056 2722 
Q 1838 2722 1666 2615 
Q 1494 2509 1414 2295 
Q 1334 2081 1334 1663 
L 1334 0 
L 456 0 
L 456 4581 
L 1334 4581 
z
" transform="scale(0.015625)"/>
        <path id="Arial-BoldMT-73" d="M 150 947 
L 1031 1081 
Q 1088 825 1259 692 
Q 1431 559 1741 559 
Q 2081 559 2253 684 
Q 2369 772 2369 919 
Q 2369 1019 2306 1084 
Q 2241 1147 2013 1200 
Q 950 1434 666 1628 
Q 272 1897 272 2375 
Q 272 2806 612 3100 
Q 953 3394 1669 3394 
Q 2350 3394 2681 3172 
Q 3013 2950 3138 2516 
L 2309 2363 
Q 2256 2556 2107 2659 
Q 1959 2763 1684 2763 
Q 1338 2763 1188 2666 
Q 1088 2597 1088 2488 
Q 1088 2394 1175 2328 
Q 1294 2241 1995 2081 
Q 2697 1922 2975 1691 
Q 3250 1456 3250 1038 
Q 3250 581 2869 253 
Q 2488 -75 1741 -75 
Q 1063 -75 667 200 
Q 272 475 150 947 
z
" transform="scale(0.015625)"/>
       </defs>
       <use xlink:href="#Arial-BoldMT-52"/>
       <use xlink:href="#Arial-BoldMT-69" transform="translate(72.216797 0)"/>
       <use xlink:href="#Arial-BoldMT-64" transform="translate(100 0)"/>
       <use xlink:href="#Arial-BoldMT-65" transform="translate(161.083984 0)"/>
       <use xlink:href="#Arial-BoldMT-20" transform="translate(216.699219 0)"/>
       <use xlink:href="#Arial-BoldMT-53" transform="translate(244.482422 0)"/>
       <use xlink:href="#Arial-BoldMT-6d" transform="translate(311.181641 0)"/>
       <use xlink:href="#Arial-BoldMT-6f" transform="translate(400.097656 0)"/>
       <use xlink:href="#Arial-BoldMT-6f" transform="translate(461.181641 0)"/>
       <use xlink:href="#Arial-BoldMT-74" transform="translate(522.265625 0)"/>
       <use xlink:href="#Arial-BoldMT-68" transform="translate(555.566406 0)"/>
       <use xlink:href="#Arial-BoldMT-6e" transform="translate(616.650391 0)"/>
       <use xlink:href="#Arial-BoldMT-65" transform="translate(677.734375 0)"/>
       <use xlink:href="#Arial-BoldMT-73" transform="translate(733.349609 0)"/>
       <use xlink:href="#Arial-BoldMT-73" transform="translate(788.964844 0)"/>
      </g>
     </g>
    </g>
    <g id="xtick_4">
     <g id="line2d_4">
      <path d="M 274.357187 258.693125 
L 274.357187 452.733125 
" clip-path="url(#paf2c5b84fe)" style="fill: none; stroke: #e0e0e0; stroke-width: 0.8; stroke-linecap: square"/>
     </g>
     <g id="text_4">
      <!-- Speed Consistency -->
      <g transform="translate(209.786562 470.355625) scale(0.14 -0.14)">
       <defs>
        <path id="Arial-BoldMT-43" d="M 3397 1684 
L 4294 1400 
Q 4088 650 3608 286 
Q 3128 -78 2391 -78 
Q 1478 -78 890 545 
Q 303 1169 303 2250 
Q 303 3394 893 4026 
Q 1484 4659 2447 4659 
Q 3288 4659 3813 4163 
Q 4125 3869 4281 3319 
L 3366 3100 
Q 3284 3456 3026 3662 
Q 2769 3869 2400 3869 
Q 1891 3869 1573 3503 
Q 1256 3138 1256 2319 
Q 1256 1450 1568 1081 
Q 1881 713 2381 713 
Q 2750 713 3015 947 
Q 3281 1181 3397 1684 
z
" transform="scale(0.015625)"/>
        <path id="Arial-BoldMT-63" d="M 3353 2338 
L 2488 2181 
Q 2444 2441 2289 2572 
Q 2134 2703 1888 2703 
Q 1559 2703 1364 2476 
Q 1169 2250 1169 1719 
Q 1169 1128 1367 884 
Q 1566 641 1900 641 
Q 2150 641 2309 783 
Q 2469 925 2534 1272 
L 3397 1125 
Q 3263 531 2881 228 
Q 2500 -75 1859 -75 
Q 1131 -75 698 384 
Q 266 844 266 1656 
Q 266 2478 700 2936 
Q 1134 3394 1875 3394 
Q 2481 3394 2839 3133 
Q 3197 2872 3353 2338 
z
" transform="scale(0.015625)"/>
       </defs>
       <use xlink:href="#Arial-BoldMT-53"/>
       <use xlink:href="#Arial-BoldMT-70" transform="translate(66.699219 0)"/>
       <use xlink:href="#Arial-BoldMT-65" transform="translate(127.783203 0)"/>
       <use xlink:href="#Arial-BoldMT-65" transform="translate(183.398438 0)"/>
       <use xlink:href="#Arial-BoldMT-64" transform="translate(239.013672 0)"/>
       <use xlink:href="#Arial-BoldMT-20" transform="translate(300.097656 0)"/>
       <use xlink:href="#Arial-BoldMT-43" transform="translate(327.880859 0)"/>
       <use xlink:href="#Arial-BoldMT-6f" transform="translate(400.097656 0)"/>
       <use xlink:href="#Arial-BoldMT-6e" transform="translate(461.181641 0)"/>
       <use xlink:href="#Arial-BoldMT-73" transform="translate(522.265625 0)"/>
       <use xlink:href="#Arial-BoldMT-69" transform="translate(577.880859 0)"/>
       <use xlink:href="#Arial-BoldMT-73" transform="translate(605.664062 0)"/>
       <use xlink:href="#Arial-BoldMT-74" transform="translate(661.279297 0)"/>
       <use xlink:href="#Arial-BoldMT-65" transform="translate(694.580078 0)"/>
       <use xlink:href="#Arial-BoldMT-6e" transform="translate(750.195312 0)"/>
       <use xlink:href="#Arial-BoldMT-63" transform="translate(811.279297 0)"/>
       <use xlink:href="#Arial-BoldMT-79" transform="translate(866.894531 0)"/>
      </g>
     </g>
    </g>
   </g>
   <g id="matplotlib.axis_2">
    <g id="ytick_1">
     <g id="line2d_5">
      <path d="M 318.457187 258.693125 
C 318.457187 252.901966 317.316455 247.167119 315.100275 241.816786 
C 312.884094 236.466452 309.635564 231.604684 305.540597 227.509716 
C 301.445629 223.414748 296.58386 220.166218 291.233527 217.950038 
C 285.883194 215.733857 280.148346 214.593125 274.357187 214.593125 
C 268.566029 214.593125 262.831181 215.733857 257.480848 217.950038 
C 252.130515 220.166218 247.268746 223.414748 243.173778 227.509716 
C 239.078811 231.604684 235.830281 236.466452 233.6141 241.816786 
C 231.39792 247.167119 230.257187 252.901966 230.257187 258.693125 
C 230.257187 264.484284 231.39792 270.219131 233.6141 275.569464 
C 235.830281 280.919798 239.078811 285.781566 243.173778 289.876534 
C 247.268746 293.971502 252.130515 297.220032 257.480848 299.436212 
C 262.831181 301.652393 268.566029 302.793125 274.357187 302.793125 
C 280.148346 302.793125 285.883194 301.652393 291.233527 299.436212 
C 296.58386 297.220032 301.445629 293.971502 305.540597 289.876534 
C 309.635564 285.781566 312.884094 280.919798 315.100275 275.569464 
C 317.316455 270.219131 318.457187 264.484284 318.457187 258.693125 
" clip-path="url(#paf2c5b84fe)" style="fill: none; stroke: #e0e0e0; stroke-width: 0.8; stroke-linecap: square"/>
     </g>
    </g>
    <g id="ytick_2">
     <g id="line2d_6">
      <path d="M 362.557187 258.693125 
C 362.557187 247.110807 360.275723 235.641113 355.843362 224.940446 
C 351.411001 214.23978 344.913941 204.516242 336.724006 196.326307 
C 328.53407 188.136371 318.810533 181.639311 308.109866 177.20695 
C 297.4092 172.774589 285.939505 170.493125 274.357187 170.493125 
C 262.77487 170.493125 251.305175 172.774589 240.604509 177.20695 
C 229.903842 181.639311 220.180305 188.136371 211.990369 196.326307 
C 203.800434 204.516242 197.303374 214.23978 192.871013 224.940446 
C 188.438652 235.641113 186.157187 247.110807 186.157187 258.693125 
C 186.157187 270.275443 188.438652 281.745137 192.871013 292.445804 
C 197.303374 303.14647 203.800434 312.870008 211.990369 321.059943 
C 220.180305 329.249879 229.903842 335.746939 240.604509 340.1793 
C 251.305175 344.611661 262.77487 346.893125 274.357187 346.893125 
C 285.939505 346.893125 297.4092 344.611661 308.109866 340.1793 
C 318.810533 335.746939 328.53407 329.249879 336.724006 321.059943 
C 344.913941 312.870008 351.411001 303.14647 355.843362 292.445804 
C 360.275723 281.745137 362.557187 270.275443 362.557187 258.693125 
" clip-path="url(#paf2c5b84fe)" style="fill: none; stroke: #e0e0e0; stroke-width: 0.8; stroke-linecap: square"/>
     </g>
    </g>
    <g id="ytick_3">
     <g id="line2d_7">
      <path d="M 406.657187 258.693125 
C 406.657187 241.319648 403.234991 224.115107 396.58645 208.064107 
C 389.937908 192.013107 380.192318 177.427801 367.907415 165.142898 
C 355.622511 152.857995 341.037205 143.112405 324.986206 136.463863 
C 308.935206 129.815321 291.730664 126.393125 274.357187 126.393125 
C 256.983711 126.393125 239.779169 129.815321 223.728169 136.463863 
C 207.67717 143.112405 193.091864 152.857995 180.80696 165.142898 
C 168.522057 177.427801 158.776467 192.013107 152.127925 208.064107 
C 145.479384 224.115107 142.057187 241.319648 142.057187 258.693125 
C 142.057187 276.066602 145.479384 293.271143 152.127925 309.322143 
C 158.776467 325.373143 168.522057 339.958449 180.80696 352.243352 
C 193.091864 364.528255 207.67717 374.273845 223.728169 380.922387 
C 239.779169 387.570929 256.983711 390.993125 274.357187 390.993125 
C 291.730664 390.993125 308.935206 387.570929 324.986206 380.922387 
C 341.037205 374.273845 355.622511 364.528255 367.907415 352.243352 
C 380.192318 339.958449 389.937908 325.373143 396.58645 309.322143 
C 403.234991 293.271143 406.657187 276.066602 406.657187 258.693125 
" clip-path="url(#paf2c5b84fe)" style="fill: none; stroke: #e0e0e0; stroke-width: 0.8; stroke-linecap: square"/>
     </g>
    </g>
    <g id="ytick_4">
     <g id="line2d_8">
      <path d="M 450.757187 258.693125 
C 450.757187 235.528489 446.194259 212.5891 437.329537 191.187768 
C 428.464815 169.786435 415.470695 150.33936 399.090824 133.959489 
C 382.710953 117.579618 363.263878 104.585498 341.862545 95.720775 
C 320.461212 86.856053 297.521823 82.293125 274.357187 82.293125 
C 251.192552 82.293125 228.253163 86.856053 206.85183 95.720775 
C 185.450497 104.585498 166.003422 117.579618 149.623551 133.959489 
C 133.24368 150.33936 120.24956 169.786435 111.384838 191.187768 
C 102.520116 212.5891 97.957188 235.528489 97.957188 258.693125 
C 97.957188 281.857761 102.520116 304.79715 111.384838 326.198482 
C 120.24956 347.599815 133.24368 367.04689 149.623551 383.426761 
C 166.003422 399.806632 185.450497 412.800752 206.85183 421.665475 
C 228.253163 430.530197 251.192552 435.093125 274.357187 435.093125 
C 297.521823 435.093125 320.461212 430.530197 341.862545 421.665475 
C 363.263878 412.800752 382.710953 399.806632 399.090824 383.426761 
C 415.470695 367.04689 428.464815 347.599815 437.329537 326.198482 
C 446.194259 304.79715 450.757187 281.857761 450.757187 258.693125 
" clip-path="url(#paf2c5b84fe)" style="fill: none; stroke: #e0e0e0; stroke-width: 0.8; stroke-linecap: square"/>
     </g>
     <g id="text_5">
      <!-- best -->
      <g style="fill: #aaaaaa" transform="translate(437.329537 189.399018) scale(0.09 -0.09)">
       <defs>
        <path id="ArialMT-62" d="M 941 0 
L 419 0 
L 419 4581 
L 981 4581 
L 981 2947 
Q 1338 3394 1891 3394 
Q 2197 3394 2470 3270 
Q 2744 3147 2920 2923 
Q 3097 2700 3197 2384 
Q 3297 2069 3297 1709 
Q 3297 856 2875 390 
Q 2453 -75 1863 -75 
Q 1275 -75 941 416 
L 941 0 
z
M 934 1684 
Q 934 1088 1097 822 
Q 1363 388 1816 388 
Q 2184 388 2453 708 
Q 2722 1028 2722 1663 
Q 2722 2313 2464 2622 
Q 2206 2931 1841 2931 
Q 1472 2931 1203 2611 
Q 934 2291 934 1684 
z
" transform="scale(0.015625)"/>
        <path id="ArialMT-65" d="M 2694 1069 
L 3275 997 
Q 3138 488 2766 206 
Q 2394 -75 1816 -75 
Q 1088 -75 661 373 
Q 234 822 234 1631 
Q 234 2469 665 2931 
Q 1097 3394 1784 3394 
Q 2450 3394 2872 2941 
Q 3294 2488 3294 1666 
Q 3294 1616 3291 1516 
L 816 1516 
Q 847 969 1125 678 
Q 1403 388 1819 388 
Q 2128 388 2347 550 
Q 2566 713 2694 1069 
z
M 847 1978 
L 2700 1978 
Q 2663 2397 2488 2606 
Q 2219 2931 1791 2931 
Q 1403 2931 1139 2672 
Q 875 2413 847 1978 
z
" transform="scale(0.015625)"/>
        <path id="ArialMT-73" d="M 197 991 
L 753 1078 
Q 800 744 1014 566 
Q 1228 388 1613 388 
Q 2000 388 2187 545 
Q 2375 703 2375 916 
Q 2375 1106 2209 1216 
Q 2094 1291 1634 1406 
Q 1016 1563 777 1677 
Q 538 1791 414 1992 
Q 291 2194 291 2438 
Q 291 2659 392 2848 
Q 494 3038 669 3163 
Q 800 3259 1026 3326 
Q 1253 3394 1513 3394 
Q 1903 3394 2198 3281 
Q 2494 3169 2634 2976 
Q 2775 2784 2828 2463 
L 2278 2388 
Q 2241 2644 2061 2787 
Q 1881 2931 1553 2931 
Q 1166 2931 1000 2803 
Q 834 2675 834 2503 
Q 834 2394 903 2306 
Q 972 2216 1119 2156 
Q 1203 2125 1616 2013 
Q 2213 1853 2448 1751 
Q 2684 1650 2818 1456 
Q 2953 1263 2953 975 
Q 2953 694 2789 445 
Q 2625 197 2315 61 
Q 2006 -75 1616 -75 
Q 969 -75 630 194 
Q 291 463 197 991 
z
" transform="scale(0.015625)"/>
        <path id="ArialMT-74" d="M 1650 503 
L 1731 6 
Q 1494 -44 1306 -44 
Q 1000 -44 831 53 
Q 663 150 594 308 
Q 525 466 525 972 
L 525 2881 
L 113 2881 
L 113 3319 
L 525 3319 
L 525 4141 
L 1084 4478 
L 1084 3319 
L 1650 3319 
L 1650 2881 
L 1084 2881 
L 1084 941 
Q 1084 700 1114 631 
Q 1144 563 1211 522 
Q 1278 481 1403 481 
Q 1497 481 1650 503 
z
" transform="scale(0.015625)"/>
       </defs>
       <use xlink:href="#ArialMT-62"/>
       <use xlink:href="#ArialMT-65" transform="translate(55.615234 0)"/>
       <use xlink:href="#ArialMT-73" transform="translate(111.230469 0)"/>
       <use xlink:href="#ArialMT-74" transform="translate(161.230469 0)"/>
      </g>
     </g>
    </g>
   </g>
   <g id="line2d_9">
    <path d="M 274.357187 258.693125 
L 274.357187 258.693125 
L 97.957188 258.693125 
L 274.357187 435.093125 
L 274.357187 258.693125 
" clip-path="url(#paf2c5b84fe)" style="fill: none; stroke: #5b8dee; stroke-width: 2.4; stroke-linecap: square"/>
   </g>
   <g id="line2d_10">
    <path d="M 362.557187 258.693125 
L 274.357187 170.493125 
L 186.157187 258.693125 
L 274.357187 346.893125 
L 362.557187 258.693125 
" clip-path="url(#paf2c5b84fe)" style="fill: none; stroke: #f5a623; stroke-width: 2.4; stroke-linecap: square"/>
   </g>
   <g id="line2d_11">
    <path d="M 450.757187 258.693125 
L 274.357187 82.293125 
L 274.357187 258.693125 
L 274.357187 258.693125 
L 450.757187 258.693125 
" clip-path="url(#paf2c5b84fe)" style="fill: none; stroke: #2ecc71; stroke-width: 2.4; stroke-linecap: square"/>
   </g>
   <g id="patch_6">
    <path d="M 468.397187 258.693125 
C 468.397187 233.212026 463.377967 207.978698 453.626772 184.437232 
C 443.875577 160.895766 429.582045 139.503983 411.564187 121.486125 
C 393.546329 103.468267 372.154547 89.174735 348.613081 79.423541 
C 325.071615 69.672346 299.838287 64.653125 274.357187 64.653125 
C 248.876088 64.653125 223.64276 69.672346 200.101294 79.423541 
C 176.559828 89.174735 155.168046 103.468267 137.150188 121.486125 
C 119.13233 139.503983 104.838798 160.895766 95.087603 184.437232 
C 85.336408 207.978698 80.317187 233.212026 80.317187 258.693125 
C 80.317187 284.174224 85.336408 309.407552 95.087603 332.949018 
C 104.838798 356.490484 119.13233 377.882267 137.150188 395.900125 
C 155.168046 413.917983 176.559828 428.211515 200.101294 437.962709 
C 223.64276 447.713904 248.876088 452.733125 274.357187 452.733125 
C 299.838287 452.733125 325.071615 447.713904 348.613081 437.962709 
C 372.154547 428.211515 393.546329 413.917983 411.564187 395.900125 
C 429.582045 377.882267 443.875577 356.490484 453.626772 332.949018 
C 463.377967 309.407552 468.397187 284.174224 468.397187 258.693125 
" style="fill: none; stroke: #dddddd; stroke-width: 0.8; stroke-linejoin: miter; stroke-linecap: square"/>
   </g>
   <g id="text_6">
    <!-- Normalised Performance at 75 % CAVs -->
    <g transform="translate(108.460469 20.084063) scale(0.18 -0.18)">
     <defs>
      <path id="Arial-BoldMT-4e" d="M 475 0 
L 475 4581 
L 1375 4581 
L 3250 1522 
L 3250 4581 
L 4109 4581 
L 4109 0 
L 3181 0 
L 1334 2988 
L 1334 0 
L 475 0 
z
" transform="scale(0.015625)"/>
      <path id="Arial-BoldMT-72" d="M 1300 0 
L 422 0 
L 422 3319 
L 1238 3319 
L 1238 2847 
Q 1447 3181 1614 3287 
Q 1781 3394 1994 3394 
Q 2294 3394 2572 3228 
L 2300 2463 
Q 2078 2606 1888 2606 
Q 1703 2606 1575 2504 
Q 1447 2403 1373 2137 
Q 1300 1872 1300 1025 
L 1300 0 
z
" transform="scale(0.015625)"/>
      <path id="Arial-BoldMT-6c" d="M 459 0 
L 459 4581 
L 1338 4581 
L 1338 0 
L 459 0 
z
" transform="scale(0.015625)"/>
      <path id="Arial-BoldMT-50" d="M 466 0 
L 466 4581 
L 1950 4581 
Q 2794 4581 3050 4513 
Q 3444 4409 3709 4064 
Q 3975 3719 3975 3172 
Q 3975 2750 3822 2462 
Q 3669 2175 3433 2011 
Q 3197 1847 2953 1794 
Q 2622 1728 1994 1728 
L 1391 1728 
L 1391 0 
L 466 0 
z
M 1391 3806 
L 1391 2506 
L 1897 2506 
Q 2444 2506 2628 2578 
Q 2813 2650 2917 2803 
Q 3022 2956 3022 3159 
Q 3022 3409 2875 3571 
Q 2728 3734 2503 3775 
Q 2338 3806 1838 3806 
L 1391 3806 
z
" transform="scale(0.015625)"/>
      <path id="Arial-BoldMT-37" d="M 272 3703 
L 272 4519 
L 3275 4519 
L 3275 3881 
Q 2903 3516 2518 2831 
Q 2134 2147 1932 1376 
Q 1731 606 1734 0 
L 888 0 
Q 909 950 1279 1937 
Q 1650 2925 2269 3703 
L 272 3703 
z
" transform="scale(0.015625)"/>
      <path id="Arial-BoldMT-35" d="M 284 1178 
L 1159 1269 
Q 1197 972 1381 798 
Q 1566 625 1806 625 
Q 2081 625 2272 848 
Q 2463 1072 2463 1522 
Q 2463 1944 2273 2155 
Q 2084 2366 1781 2366 
Q 1403 2366 1103 2031 
L 391 2134 
L 841 4519 
L 3163 4519 
L 3163 3697 
L 1506 3697 
L 1369 2919 
Q 1663 3066 1969 3066 
Q 2553 3066 2959 2641 
Q 3366 2216 3366 1538 
Q 3366 972 3038 528 
Q 2591 -78 1797 -78 
Q 1163 -78 763 262 
Q 363 603 284 1178 
z
" transform="scale(0.015625)"/>
      <path id="Arial-BoldMT-25" d="M 278 3450 
Q 278 4066 548 4362 
Q 819 4659 1281 4659 
Q 1759 4659 2029 4364 
Q 2300 4069 2300 3450 
Q 2300 2834 2029 2537 
Q 1759 2241 1297 2241 
Q 819 2241 548 2536 
Q 278 2831 278 3450 
z
M 963 3456 
Q 963 3009 1066 2856 
Q 1144 2744 1281 2744 
Q 1422 2744 1500 2856 
Q 1600 3009 1600 3456 
Q 1600 3903 1500 4053 
Q 1422 4169 1281 4169 
Q 1144 4169 1066 4056 
Q 963 3903 963 3456 
z
M 1950 -175 
L 1300 -175 
L 3741 4659 
L 4372 4659 
L 1950 -175 
z
M 3369 1028 
Q 3369 1644 3639 1941 
Q 3909 2238 4378 2238 
Q 4850 2238 5120 1941 
Q 5391 1644 5391 1028 
Q 5391 409 5120 112 
Q 4850 -184 4388 -184 
Q 3909 -184 3639 112 
Q 3369 409 3369 1028 
z
M 4053 1031 
Q 4053 584 4156 434 
Q 4234 319 4372 319 
Q 4513 319 4588 431 
Q 4691 584 4691 1031 
Q 4691 1478 4591 1631 
Q 4513 1744 4372 1744 
Q 4231 1744 4156 1631 
Q 4053 1478 4053 1031 
z
" transform="scale(0.015625)"/>
      <path id="Arial-BoldMT-41" d="M 4597 0 
L 3591 0 
L 3191 1041 
L 1359 1041 
L 981 0 
L 0 0 
L 1784 4581 
L 2763 4581 
L 4597 0 
z
M 2894 1813 
L 2263 3513 
L 1644 1813 
L 2894 1813 
z
" transform="scale(0.015625)"/>
      <path id="Arial-BoldMT-56" d="M 1634 0 
L -3 4581 
L 1000 4581 
L 2159 1191 
L 3281 4581 
L 4263 4581 
L 2622 0 
L 1634 0 
z
" transform="scale(0.015625)"/>
     </defs>
     <use xlink:href="#Arial-BoldMT-4e"/>
     <use xlink:href="#Arial-BoldMT-6f" transform="translate(72.216797 0)"/>
     <use xlink:href="#Arial-BoldMT-72" transform="translate(133.300781 0)"/>
     <use xlink:href="#Arial-BoldMT-6d" transform="translate(172.216797 0)"/>
     <use xlink:href="#Arial-BoldMT-61" transform="translate(261.132812 0)"/>
     <use xlink:href="#Arial-BoldMT-6c" transform="translate(316.748047 0)"/>
     <use xlink:href="#Arial-BoldMT-69" transform="translate(344.53125 0)"/>
     <use xlink:href="#Arial-BoldMT-73" transform="translate(372.314453 0)"/>
     <use xlink:href="#Arial-BoldMT-65" transform="translate(427.929688 0)"/>
     <use xlink:href="#Arial-BoldMT-64" transform="translate(483.544922 0)"/>
     <use xlink:href="#Arial-BoldMT-20" transform="translate(544.628906 0)"/>
     <use xlink:href="#Arial-BoldMT-50" transform="translate(572.412109 0)"/>
     <use xlink:href="#Arial-BoldMT-65" transform="translate(639.111328 0)"/>
     <use xlink:href="#Arial-BoldMT-72" transform="translate(694.726562 0)"/>
     <use xlink:href="#Arial-BoldMT-66" transform="translate(733.642578 0)"/>
     <use xlink:href="#Arial-BoldMT-6f" transform="translate(766.943359 0)"/>
     <use xlink:href="#Arial-BoldMT-72" transform="translate(828.027344 0)"/>
     <use xlink:href="#Arial-BoldMT-6d" transform="translate(866.943359 0)"/>
     <use xlink:href="#Arial-BoldMT-61" transform="translate(955.859375 0)"/>
     <use xlink:href="#Arial-BoldMT-6e" transform="translate(1011.474609 0)"/>
     <use xlink:href="#Arial-BoldMT-63" transform="translate(1072.558594 0)"/>
     <use xlink:href="#Arial-BoldMT-65" transform="translate(1128.173828 0)"/>
     <use xlink:href="#Arial-BoldMT-20" transform="translate(1183.789062 0)"/>
     <use xlink:href="#Arial-BoldMT-61" transform="translate(1211.572266 0)"/>
     <use xlink:href="#Arial-BoldMT-74" transform="translate(1267.1875 0)"/>
     <use xlink:href="#Arial-BoldMT-20" transform="translate(1300.488281 0)"/>
     <use xlink:href="#Arial-BoldMT-37" transform="translate(1328.271484 0)"/>
     <use xlink:href="#Arial-BoldMT-35" transform="translate(1383.886719 0)"/>
     <use xlink:href="#Arial-BoldMT-20" transform="translate(1439.501953 0)"/>
     <use xlink:href="#Arial-BoldMT-25" transform="translate(1467.285156 0)"/>
     <use xlink:href="#Arial-BoldMT-20" transform="translate(1556.201172 0)"/>
     <use xlink:href="#Arial-BoldMT-43" transform="translate(1583.984375 0)"/>
     <use xlink:href="#Arial-BoldMT-41" transform="translate(1656.201172 0)"/>
     <use xlink:href="#Arial-BoldMT-56" transform="translate(1721.042969 0)"/>
     <use xlink:href="#Arial-BoldMT-73" transform="translate(1787.742188 0)"/>
    </g>
   </g>
   <g id="legend_1">
    <g id="line2d_12">
     <path d="M 431.354687 34.697119 
L 444.354687 34.697119 
L 457.354687 34.697119 
" style="fill: none; stroke: #5b8dee; stroke-width: 2.4; stroke-linecap: square"/>
    </g>
    <g id="text_7">
     <!-- Baseline (IDM) -->
     <g transform="translate(467.754687 39.247119) scale(0.13 -0.13)">
      <defs>
       <path id="ArialMT-42" d="M 469 0 
L 469 4581 
L 2188 4581 
Q 2713 4581 3030 4442 
Q 3347 4303 3526 4014 
Q 3706 3725 3706 3409 
Q 3706 3116 3547 2856 
Q 3388 2597 3066 2438 
Q 3481 2316 3704 2022 
Q 3928 1728 3928 1328 
Q 3928 1006 3792 729 
Q 3656 453 3456 303 
Q 3256 153 2954 76 
Q 2653 0 2216 0 
L 469 0 
z
M 1075 2656 
L 2066 2656 
Q 2469 2656 2644 2709 
Q 2875 2778 2992 2937 
Q 3109 3097 3109 3338 
Q 3109 3566 3000 3739 
Q 2891 3913 2687 3977 
Q 2484 4041 1991 4041 
L 1075 4041 
L 1075 2656 
z
M 1075 541 
L 2216 541 
Q 2509 541 2628 563 
Q 2838 600 2978 687 
Q 3119 775 3209 942 
Q 3300 1109 3300 1328 
Q 3300 1584 3169 1773 
Q 3038 1963 2805 2039 
Q 2572 2116 2134 2116 
L 1075 2116 
L 1075 541 
z
" transform="scale(0.015625)"/>
       <path id="ArialMT-61" d="M 2588 409 
Q 2275 144 1986 34 
Q 1697 -75 1366 -75 
Q 819 -75 525 192 
Q 231 459 231 875 
Q 231 1119 342 1320 
Q 453 1522 633 1644 
Q 813 1766 1038 1828 
Q 1203 1872 1538 1913 
Q 2219 1994 2541 2106 
Q 2544 2222 2544 2253 
Q 2544 2597 2384 2738 
Q 2169 2928 1744 2928 
Q 1347 2928 1158 2789 
Q 969 2650 878 2297 
L 328 2372 
Q 403 2725 575 2942 
Q 747 3159 1072 3276 
Q 1397 3394 1825 3394 
Q 2250 3394 2515 3294 
Q 2781 3194 2906 3042 
Q 3031 2891 3081 2659 
Q 3109 2516 3109 2141 
L 3109 1391 
Q 3109 606 3145 398 
Q 3181 191 3288 0 
L 2700 0 
Q 2613 175 2588 409 
z
M 2541 1666 
Q 2234 1541 1622 1453 
Q 1275 1403 1131 1340 
Q 988 1278 909 1158 
Q 831 1038 831 891 
Q 831 666 1001 516 
Q 1172 366 1500 366 
Q 1825 366 2078 508 
Q 2331 650 2450 897 
Q 2541 1088 2541 1459 
L 2541 1666 
z
" transform="scale(0.015625)"/>
       <path id="ArialMT-6c" d="M 409 0 
L 409 4581 
L 972 4581 
L 972 0 
L 409 0 
z
" transform="scale(0.015625)"/>
       <path id="ArialMT-69" d="M 425 3934 
L 425 4581 
L 988 4581 
L 988 3934 
L 425 3934 
z
M 425 0 
L 425 3319 
L 988 3319 
L 988 0 
L 425 0 
z
" transform="scale(0.015625)"/>
       <path id="ArialMT-6e" d="M 422 0 
L 422 3319 
L 928 3319 
L 928 2847 
Q 1294 3394 1984 3394 
Q 2284 3394 2536 3286 
Q 2788 3178 2913 3003 
Q 3038 2828 3088 2588 
Q 3119 2431 3119 2041 
L 3119 0 
L 2556 0 
L 2556 2019 
Q 2556 2363 2490 2533 
Q 2425 2703 2258 2804 
Q 2091 2906 1866 2906 
Q 1506 2906 1245 2678 
Q 984 2450 984 1813 
L 984 0 
L 422 0 
z
" transform="scale(0.015625)"/>
       <path id="ArialMT-20" transform="scale(0.015625)"/>
       <path id="ArialMT-28" d="M 1497 -1347 
Q 1031 -759 709 28 
Q 388 816 388 1659 
Q 388 2403 628 3084 
Q 909 3875 1497 4659 
L 1900 4659 
Q 1522 4009 1400 3731 
Q 1209 3300 1100 2831 
Q 966 2247 966 1656 
Q 966 153 1900 -1347 
L 1497 -1347 
z
" transform="scale(0.015625)"/>
       <path id="ArialMT-49" d="M 597 0 
L 597 4581 
L 1203 4581 
L 1203 0 
L 597 0 
z
" transform="scale(0.015625)"/>
       <path id="ArialMT-44" d="M 494 0 
L 494 4581 
L 2072 4581 
Q 2606 4581 2888 4516 
Q 3281 4425 3559 4188 
Q 3922 3881 4101 3404 
Q 4281 2928 4281 2316 
Q 4281 1794 4159 1391 
Q 4038 988 3847 723 
Q 3656 459 3429 307 
Q 3203 156 2883 78 
Q 2563 0 2147 0 
L 494 0 
z
M 1100 541 
L 2078 541 
Q 2531 541 2789 625 
Q 3047 709 3200 863 
Q 3416 1078 3536 1442 
Q 3656 1806 3656 2325 
Q 3656 3044 3420 3430 
Q 3184 3816 2847 3947 
Q 2603 4041 2063 4041 
L 1100 4041 
L 1100 541 
z
" transform="scale(0.015625)"/>
       <path id="ArialMT-4d" d="M 475 0 
L 475 4581 
L 1388 4581 
L 2472 1338 
Q 2622 884 2691 659 
Q 2769 909 2934 1394 
L 4031 4581 
L 4847 4581 
L 4847 0 
L 4263 0 
L 4263 3834 
L 2931 0 
L 2384 0 
L 1059 3900 
L 1059 0 
L 475 0 
z
" transform="scale(0.015625)"/>
       <path id="ArialMT-29" d="M 791 -1347 
L 388 -1347 
Q 1322 153 1322 1656 
Q 1322 2244 1188 2822 
Q 1081 3291 891 3722 
Q 769 4003 388 4659 
L 791 4659 
Q 1378 3875 1659 3084 
Q 1900 2403 1900 1659 
Q 1900 816 1576 28 
Q 1253 -759 791 -1347 
z
" transform="scale(0.015625)"/>
      </defs>
      <use xlink:href="#ArialMT-42"/>
      <use xlink:href="#ArialMT-61" transform="translate(66.699219 0)"/>
      <use xlink:href="#ArialMT-73" transform="translate(122.314453 0)"/>
      <use xlink:href="#ArialMT-65" transform="translate(172.314453 0)"/>
      <use xlink:href="#ArialMT-6c" transform="translate(227.929688 0)"/>
      <use xlink:href="#ArialMT-69" transform="translate(250.146484 0)"/>
      <use xlink:href="#ArialMT-6e" transform="translate(272.363281 0)"/>
      <use xlink:href="#ArialMT-65" transform="translate(327.978516 0)"/>
      <use xlink:href="#ArialMT-20" transform="translate(383.59375 0)"/>
      <use xlink:href="#ArialMT-28" transform="translate(411.376953 0)"/>
      <use xlink:href="#ArialMT-49" transform="translate(444.677734 0)"/>
      <use xlink:href="#ArialMT-44" transform="translate(472.460938 0)"/>
      <use xlink:href="#ArialMT-4d" transform="translate(544.677734 0)"/>
      <use xlink:href="#ArialMT-29" transform="translate(627.978516 0)"/>
     </g>
    </g>
    <g id="line2d_13">
     <path d="M 431.354687 53.238369 
L 444.354687 53.238369 
L 457.354687 53.238369 
" style="fill: none; stroke: #f5a623; stroke-width: 2.4; stroke-linecap: square"/>
    </g>
    <g id="text_8">
     <!-- Adaptive -->
     <g transform="translate(467.754687 57.788369) scale(0.13 -0.13)">
      <defs>
       <path id="ArialMT-41" d="M -9 0 
L 1750 4581 
L 2403 4581 
L 4278 0 
L 3588 0 
L 3053 1388 
L 1138 1388 
L 634 0 
L -9 0 
z
M 1313 1881 
L 2866 1881 
L 2388 3150 
Q 2169 3728 2063 4100 
Q 1975 3659 1816 3225 
L 1313 1881 
z
" transform="scale(0.015625)"/>
       <path id="ArialMT-64" d="M 2575 0 
L 2575 419 
Q 2259 -75 1647 -75 
Q 1250 -75 917 144 
Q 584 363 401 755 
Q 219 1147 219 1656 
Q 219 2153 384 2558 
Q 550 2963 881 3178 
Q 1213 3394 1622 3394 
Q 1922 3394 2156 3267 
Q 2391 3141 2538 2938 
L 2538 4581 
L 3097 4581 
L 3097 0 
L 2575 0 
z
M 797 1656 
Q 797 1019 1065 703 
Q 1334 388 1700 388 
Q 2069 388 2326 689 
Q 2584 991 2584 1609 
Q 2584 2291 2321 2609 
Q 2059 2928 1675 2928 
Q 1300 2928 1048 2622 
Q 797 2316 797 1656 
z
" transform="scale(0.015625)"/>
       <path id="ArialMT-70" d="M 422 -1272 
L 422 3319 
L 934 3319 
L 934 2888 
Q 1116 3141 1344 3267 
Q 1572 3394 1897 3394 
Q 2322 3394 2647 3175 
Q 2972 2956 3137 2557 
Q 3303 2159 3303 1684 
Q 3303 1175 3120 767 
Q 2938 359 2589 142 
Q 2241 -75 1856 -75 
Q 1575 -75 1351 44 
Q 1128 163 984 344 
L 984 -1272 
L 422 -1272 
z
M 931 1641 
Q 931 1000 1190 694 
Q 1450 388 1819 388 
Q 2194 388 2461 705 
Q 2728 1022 2728 1688 
Q 2728 2322 2467 2637 
Q 2206 2953 1844 2953 
Q 1484 2953 1207 2617 
Q 931 2281 931 1641 
z
" transform="scale(0.015625)"/>
       <path id="ArialMT-76" d="M 1344 0 
L 81 3319 
L 675 3319 
L 1388 1331 
Q 1503 1009 1600 663 
Q 1675 925 1809 1294 
L 2547 3319 
L 3125 3319 
L 1869 0 
L 1344 0 
z
" transform="scale(0.015625)"/>
      </defs>
      <use xlink:href="#ArialMT-41"/>
      <use xlink:href="#ArialMT-64" transform="translate(66.699219 0)"/>
      <use xlink:href="#ArialMT-61" transform="translate(122.314453 0)"/>
      <use xlink:href="#ArialMT-70" transform="translate(177.929688 0)"/>
      <use xlink:href="#ArialMT-74" transform="translate(233.544922 0)"/>
      <use xlink:href="#ArialMT-69" transform="translate(261.328125 0)"/>
      <use xlink:href="#ArialMT-76" transform="translate(283.544922 0)"/>
      <use xlink:href="#ArialMT-65" transform="translate(333.544922 0)"/>
     </g>
    </g>
    <g id="line2d_14">
     <path d="M 431.354687 71.785712 
L 444.354687 71.785712 
L 457.354687 71.785712 
" style="fill: none; stroke: #2ecc71; stroke-width: 2.4; stroke-linecap: square"/>
    </g>
    <g id="text_9">
     <!-- SAC  (ours) -->
     <g transform="translate(467.754687 76.335712) scale(0.13 -0.13)">
      <defs>
       <path id="ArialMT-53" d="M 288 1472 
L 859 1522 
Q 900 1178 1048 958 
Q 1197 738 1509 602 
Q 1822 466 2213 466 
Q 2559 466 2825 569 
Q 3091 672 3220 851 
Q 3350 1031 3350 1244 
Q 3350 1459 3225 1620 
Q 3100 1781 2813 1891 
Q 2628 1963 1997 2114 
Q 1366 2266 1113 2400 
Q 784 2572 623 2826 
Q 463 3081 463 3397 
Q 463 3744 659 4045 
Q 856 4347 1234 4503 
Q 1613 4659 2075 4659 
Q 2584 4659 2973 4495 
Q 3363 4331 3572 4012 
Q 3781 3694 3797 3291 
L 3216 3247 
Q 3169 3681 2898 3903 
Q 2628 4125 2100 4125 
Q 1550 4125 1298 3923 
Q 1047 3722 1047 3438 
Q 1047 3191 1225 3031 
Q 1400 2872 2139 2705 
Q 2878 2538 3153 2413 
Q 3553 2228 3743 1945 
Q 3934 1663 3934 1294 
Q 3934 928 3725 604 
Q 3516 281 3123 101 
Q 2731 -78 2241 -78 
Q 1619 -78 1198 103 
Q 778 284 539 648 
Q 300 1013 288 1472 
z
" transform="scale(0.015625)"/>
       <path id="ArialMT-43" d="M 3763 1606 
L 4369 1453 
Q 4178 706 3683 314 
Q 3188 -78 2472 -78 
Q 1731 -78 1267 223 
Q 803 525 561 1097 
Q 319 1669 319 2325 
Q 319 3041 592 3573 
Q 866 4106 1370 4382 
Q 1875 4659 2481 4659 
Q 3169 4659 3637 4309 
Q 4106 3959 4291 3325 
L 3694 3184 
Q 3534 3684 3231 3912 
Q 2928 4141 2469 4141 
Q 1941 4141 1586 3887 
Q 1231 3634 1087 3207 
Q 944 2781 944 2328 
Q 944 1744 1114 1308 
Q 1284 872 1643 656 
Q 2003 441 2422 441 
Q 2931 441 3284 734 
Q 3638 1028 3763 1606 
z
" transform="scale(0.015625)"/>
       <path id="ArialMT-6f" d="M 213 1659 
Q 213 2581 725 3025 
Q 1153 3394 1769 3394 
Q 2453 3394 2887 2945 
Q 3322 2497 3322 1706 
Q 3322 1066 3130 698 
Q 2938 331 2570 128 
Q 2203 -75 1769 -75 
Q 1072 -75 642 372 
Q 213 819 213 1659 
z
M 791 1659 
Q 791 1022 1069 705 
Q 1347 388 1769 388 
Q 2188 388 2466 706 
Q 2744 1025 2744 1678 
Q 2744 2294 2464 2611 
Q 2184 2928 1769 2928 
Q 1347 2928 1069 2612 
Q 791 2297 791 1659 
z
" transform="scale(0.015625)"/>
       <path id="ArialMT-75" d="M 2597 0 
L 2597 488 
Q 2209 -75 1544 -75 
Q 1250 -75 995 37 
Q 741 150 617 320 
Q 494 491 444 738 
Q 409 903 409 1263 
L 409 3319 
L 972 3319 
L 972 1478 
Q 972 1038 1006 884 
Q 1059 663 1231 536 
Q 1403 409 1656 409 
Q 1909 409 2131 539 
Q 2353 669 2445 892 
Q 2538 1116 2538 1541 
L 2538 3319 
L 3100 3319 
L 3100 0 
L 2597 0 
z
" transform="scale(0.015625)"/>
       <path id="ArialMT-72" d="M 416 0 
L 416 3319 
L 922 3319 
L 922 2816 
Q 1116 3169 1280 3281 
Q 1444 3394 1641 3394 
Q 1925 3394 2219 3213 
L 2025 2691 
Q 1819 2813 1613 2813 
Q 1428 2813 1281 2702 
Q 1134 2591 1072 2394 
Q 978 2094 978 1738 
L 978 0 
L 416 0 
z
" transform="scale(0.015625)"/>
      </defs>
      <use xlink:href="#ArialMT-53"/>
      <use xlink:href="#ArialMT-41" transform="translate(66.699219 0)"/>
      <use xlink:href="#ArialMT-43" transform="translate(133.398438 0)"/>
      <use xlink:href="#ArialMT-20" transform="translate(205.615234 0)"/>
      <use xlink:href="#ArialMT-20" transform="translate(233.398438 0)"/>
      <use xlink:href="#ArialMT-28" transform="translate(261.181641 0)"/>
      <use xlink:href="#ArialMT-6f" transform="translate(294.482422 0)"/>
      <use xlink:href="#ArialMT-75" transform="translate(350.097656 0)"/>
      <use xlink:href="#ArialMT-72" transform="translate(405.712891 0)"/>
      <use xlink:href="#ArialMT-73" transform="translate(439.013672 0)"/>
      <use xlink:href="#ArialMT-29" transform="translate(489.013672 0)"/>
     </g>
    </g>
   </g>
  </g>
 </g>
 <defs>
  <clipPath id="paf2c5b84fe">
   <path d="M 468.397187 258.693125 
C 468.397187 233.212026 463.377967 207.978698 453.626772 184.437232 
C 443.875577 160.895766 429.582045 139.503983 411.564187 121.486125 
C 393.546329 103.468267 372.154547 89.174735 348.613081 79.423541 
C 325.071615 69.672346 299.838287 64.653125 274.357187 64.653125 
C 248.876088 64.653125 223.64276 69.672346 200.101294 79.423541 
C 176.559828 89.174735 155.168046 103.468267 137.150188 121.486125 
C 119.13233 139.503983 104.838798 160.895766 95.087603 184.437232 
C 85.336408 207.978698 80.317187 233.212026 80.317187 258.693125 
C 80.317187 284.174224 85.336408 309.407552 95.087603 332.949018 
C 104.838798 356.490484 119.13233 377.882267 137.150188 395.900125 
C 155.168046 413.917983 176.559828 428.211515 200.101294 437.962709 
C 223.64276 447.713904 248.876088 452.733125 274.357187 452.733125 
C 299.838287 452.733125 325.071615 447.713904 348.613081 437.962709 
C 372.154547 428.211515 393.546329 413.917983 411.564187 395.900125 
C 429.582045 377.882267 443.875577 356.490484 453.626772 332.949018 
C 463.377967 309.407552 468.397187 284.174224 468.397187 258.693125 
M 274.357187 258.693125 
C 274.357187 258.693125 274.357187 258.693125 274.357187 258.693125 
C 274.357187 258.693125 274.357187 258.693125 274.357187 258.693125 
C 274.357187 258.693125 274.357187 258.693125 274.357187 258.693125 
C 274.357187 258.693125 274.357187 258.693125 274.357187 258.693125 
C 274.357187 258.693125 274.357187 258.693125 274.357187 258.693125 
C 274.357187 258.693125 274.357187 258.693125 274.357187 258.693125 
C 274.357187 258.693125 274.357187 258.693125 274.357187 258.693125 
C 274.357187 258.693125 274.357187 258.693125 274.357187 258.693125 
C 274.357187 258.693125 274.357187 258.693125 274.357187 258.693125 
C 274.357187 258.693125 274.357187 258.693125 274.357187 258.693125 
C 274.357187 258.693125 274.357187 258.693125 274.357187 258.693125 
C 274.357187 258.693125 274.357187 258.693125 274.357187 258.693125 
C 274.357187 258.693125 274.357187 258.693125 274.357187 258.693125 
C 274.357187 258.693125 274.357187 258.693125 274.357187 258.693125 
C 274.357187 258.693125 274.357187 258.693125 274.357187 258.693125 
C 274.357187 258.693125 274.357187 258.693125 274.357187 258.693125 
z
"/>
  </clipPath>
 </defs>
</svg>
